<mxfile host="app.diagrams.net" modified="2024-05-22T02:35:49.738Z" agent="Mozilla/5.0 (Windows NT 10.0; Win64; x64; rv:109.0) Gecko/20100101 Firefox/115.0" etag="ZMIK6goNAcB9x_He8_Ju" version="24.4.0" type="github">
  <diagram name="第 1 页" id="zExZqhCdpJbOOspbFR_4">
    <mxGraphModel dx="2625" dy="1345" grid="1" gridSize="10" guides="1" tooltips="1" connect="1" arrows="1" fold="1" page="1" pageScale="1" pageWidth="827" pageHeight="1169" math="0" shadow="0">
      <root>
        <mxCell id="0" />
        <mxCell id="1" parent="0" />
        <mxCell id="PSN9rO1ErE_UoYPw0t48-1" value="" style="rounded=0;whiteSpace=wrap;html=1;fillColor=#f5f5f5;fontColor=#333333;strokeColor=#666666;" vertex="1" parent="1">
          <mxGeometry x="150" y="120" width="120" height="60" as="geometry" />
        </mxCell>
        <mxCell id="PSN9rO1ErE_UoYPw0t48-2" value="。。。" style="rounded=0;whiteSpace=wrap;html=1;" vertex="1" parent="1">
          <mxGeometry x="280" y="120" width="120" height="60" as="geometry" />
        </mxCell>
        <mxCell id="PSN9rO1ErE_UoYPw0t48-3" value="" style="rounded=0;whiteSpace=wrap;html=1;fillColor=#f5f5f5;fontColor=#333333;strokeColor=#666666;" vertex="1" parent="1">
          <mxGeometry x="414" y="120" width="120" height="60" as="geometry" />
        </mxCell>
        <mxCell id="PSN9rO1ErE_UoYPw0t48-4" value="&lt;div&gt;。&lt;/div&gt;&lt;div&gt;。&lt;/div&gt;&lt;div&gt;。&lt;br&gt;&lt;/div&gt;" style="rounded=0;whiteSpace=wrap;html=1;" vertex="1" parent="1">
          <mxGeometry x="148" y="190" width="120" height="60" as="geometry" />
        </mxCell>
        <mxCell id="PSN9rO1ErE_UoYPw0t48-5" value="。。。" style="rounded=0;whiteSpace=wrap;html=1;" vertex="1" parent="1">
          <mxGeometry x="278" y="190" width="120" height="60" as="geometry" />
        </mxCell>
        <mxCell id="PSN9rO1ErE_UoYPw0t48-6" value="&lt;div&gt;。&lt;/div&gt;&lt;div&gt;。&lt;/div&gt;&lt;div&gt;。&lt;br&gt;&lt;/div&gt;" style="rounded=0;whiteSpace=wrap;html=1;" vertex="1" parent="1">
          <mxGeometry x="412" y="190" width="120" height="60" as="geometry" />
        </mxCell>
        <mxCell id="PSN9rO1ErE_UoYPw0t48-7" value="" style="rounded=0;whiteSpace=wrap;html=1;fillColor=#f5f5f5;fontColor=#333333;strokeColor=#666666;" vertex="1" parent="1">
          <mxGeometry x="148" y="260" width="120" height="60" as="geometry" />
        </mxCell>
        <mxCell id="PSN9rO1ErE_UoYPw0t48-8" value="。。。" style="rounded=0;whiteSpace=wrap;html=1;" vertex="1" parent="1">
          <mxGeometry x="278" y="260" width="120" height="60" as="geometry" />
        </mxCell>
        <mxCell id="PSN9rO1ErE_UoYPw0t48-9" value="" style="rounded=0;whiteSpace=wrap;html=1;fillColor=#f5f5f5;fontColor=#333333;strokeColor=#666666;" vertex="1" parent="1">
          <mxGeometry x="412" y="260" width="120" height="60" as="geometry" />
        </mxCell>
        <mxCell id="PSN9rO1ErE_UoYPw0t48-10" value="&lt;font size=&quot;1&quot; face=&quot;Times New Roman&quot;&gt;&lt;b style=&quot;font-size: 15px;&quot;&gt;nxn的摆渡&lt;/b&gt;&lt;/font&gt;" style="text;html=1;align=center;verticalAlign=middle;resizable=0;points=[];autosize=1;strokeColor=#d79b00;fillColor=#ffe6cc;" vertex="1" parent="1">
          <mxGeometry x="295" y="340" width="90" height="30" as="geometry" />
        </mxCell>
        <mxCell id="PSN9rO1ErE_UoYPw0t48-13" value="block摆渡属性共享" style="rounded=0;whiteSpace=wrap;html=1;fillColor=#fff2cc;strokeColor=#d6b656;" vertex="1" parent="1">
          <mxGeometry x="620" y="120" width="350" height="60" as="geometry" />
        </mxCell>
        <mxCell id="PSN9rO1ErE_UoYPw0t48-16" value="" style="shape=flexArrow;endArrow=classic;html=1;rounded=0;" edge="1" parent="1">
          <mxGeometry width="50" height="50" relative="1" as="geometry">
            <mxPoint x="540" y="219.5" as="sourcePoint" />
            <mxPoint x="610" y="219.5" as="targetPoint" />
            <Array as="points">
              <mxPoint x="610" y="219.5" />
            </Array>
          </mxGeometry>
        </mxCell>
        <mxCell id="PSN9rO1ErE_UoYPw0t48-17" value="&lt;font size=&quot;1&quot; face=&quot;Times New Roman&quot;&gt;&lt;b style=&quot;font-size: 15px;&quot;&gt;nx1的block&lt;/b&gt;&lt;/font&gt;" style="text;html=1;align=center;verticalAlign=middle;resizable=0;points=[];autosize=1;strokeColor=#d79b00;fillColor=#ffe6cc;" vertex="1" parent="1">
          <mxGeometry x="755" y="340" width="100" height="30" as="geometry" />
        </mxCell>
        <mxCell id="PSN9rO1ErE_UoYPw0t48-18" value="block摆渡属性共享" style="rounded=0;whiteSpace=wrap;html=1;fillColor=#f8cecc;strokeColor=#b85450;" vertex="1" parent="1">
          <mxGeometry x="620" y="190" width="350" height="60" as="geometry" />
        </mxCell>
        <mxCell id="PSN9rO1ErE_UoYPw0t48-19" value="block摆渡属性共享" style="rounded=0;whiteSpace=wrap;html=1;fillColor=#d5e8d4;strokeColor=#82b366;" vertex="1" parent="1">
          <mxGeometry x="620" y="260" width="350" height="60" as="geometry" />
        </mxCell>
        <mxCell id="PSN9rO1ErE_UoYPw0t48-23" value="" style="rounded=0;whiteSpace=wrap;html=1;fillColor=#fff2cc;strokeColor=#d6b656;" vertex="1" parent="1">
          <mxGeometry x="183" y="680" width="350" height="60" as="geometry" />
        </mxCell>
        <mxCell id="PSN9rO1ErE_UoYPw0t48-24" value="&lt;font size=&quot;1&quot; face=&quot;Times New Roman&quot;&gt;&lt;b style=&quot;font-size: 15px;&quot;&gt;nx1的block&lt;/b&gt;&lt;/font&gt;" style="text;html=1;align=center;verticalAlign=middle;resizable=0;points=[];autosize=1;strokeColor=#d79b00;fillColor=#ffe6cc;" vertex="1" parent="1">
          <mxGeometry x="318" y="900" width="100" height="30" as="geometry" />
        </mxCell>
        <mxCell id="PSN9rO1ErE_UoYPw0t48-25" value="&lt;div&gt;。&lt;/div&gt;&lt;div&gt;。&lt;/div&gt;&lt;div&gt;。&lt;/div&gt;" style="rounded=0;whiteSpace=wrap;html=1;fillColor=#f8cecc;strokeColor=#b85450;" vertex="1" parent="1">
          <mxGeometry x="183" y="750" width="350" height="60" as="geometry" />
        </mxCell>
        <mxCell id="PSN9rO1ErE_UoYPw0t48-26" value="" style="rounded=0;whiteSpace=wrap;html=1;fillColor=#d5e8d4;strokeColor=#82b366;" vertex="1" parent="1">
          <mxGeometry x="183" y="820" width="350" height="60" as="geometry" />
        </mxCell>
        <mxCell id="PSN9rO1ErE_UoYPw0t48-28" value="" style="swimlane;startSize=0;fillColor=#f5f5f5;strokeColor=#666666;fontColor=#333333;" vertex="1" parent="1">
          <mxGeometry x="710" y="660" width="270" height="260" as="geometry" />
        </mxCell>
        <mxCell id="PSN9rO1ErE_UoYPw0t48-29" value="设备1" style="whiteSpace=wrap;html=1;fillColor=#fff2cc;strokeColor=#d6b656;" vertex="1" parent="PSN9rO1ErE_UoYPw0t48-28">
          <mxGeometry x="70" y="20" width="120" height="60" as="geometry" />
        </mxCell>
        <mxCell id="PSN9rO1ErE_UoYPw0t48-30" value="&lt;div&gt;。&lt;/div&gt;&lt;div&gt;。&lt;/div&gt;&lt;div&gt;。&lt;/div&gt;" style="whiteSpace=wrap;html=1;fillColor=#f8cecc;strokeColor=#b85450;" vertex="1" parent="PSN9rO1ErE_UoYPw0t48-28">
          <mxGeometry x="70" y="95" width="120" height="60" as="geometry" />
        </mxCell>
        <mxCell id="PSN9rO1ErE_UoYPw0t48-32" value="设备n" style="whiteSpace=wrap;html=1;fillColor=#d5e8d4;strokeColor=#82b366;" vertex="1" parent="PSN9rO1ErE_UoYPw0t48-28">
          <mxGeometry x="70" y="180" width="120" height="60" as="geometry" />
        </mxCell>
        <mxCell id="PSN9rO1ErE_UoYPw0t48-33" value="&lt;font style=&quot;font-size: 15px;&quot; face=&quot;Times New Roman&quot;&gt;&lt;b&gt;设备共享&lt;/b&gt;&lt;/font&gt;" style="text;html=1;align=center;verticalAlign=middle;resizable=0;points=[];autosize=1;strokeColor=#d79b00;fillColor=#ffe6cc;" vertex="1" parent="1">
          <mxGeometry x="805" y="940" width="80" height="30" as="geometry" />
        </mxCell>
        <mxCell id="PSN9rO1ErE_UoYPw0t48-34" value="" style="shape=flexArrow;endArrow=classic;html=1;rounded=0;" edge="1" parent="1">
          <mxGeometry width="50" height="50" relative="1" as="geometry">
            <mxPoint x="664" y="779.58" as="sourcePoint" />
            <mxPoint x="554" y="779.29" as="targetPoint" />
            <Array as="points">
              <mxPoint x="664" y="779.58" />
            </Array>
          </mxGeometry>
        </mxCell>
        <mxCell id="PSN9rO1ErE_UoYPw0t48-37" value="&lt;font style=&quot;font-size: 15px;&quot;&gt;共享接驳点&lt;/font&gt;" style="rounded=0;whiteSpace=wrap;html=1;fillColor=#1ba1e2;fontColor=#ffffff;strokeColor=#006EAF;" vertex="1" parent="1">
          <mxGeometry x="183" y="1060" width="367" height="120" as="geometry" />
        </mxCell>
        <mxCell id="PSN9rO1ErE_UoYPw0t48-40" value="" style="shape=flexArrow;endArrow=classic;html=1;rounded=0;" edge="1" parent="1">
          <mxGeometry width="50" height="50" relative="1" as="geometry">
            <mxPoint x="359.29" y="950" as="sourcePoint" />
            <mxPoint x="359.29" y="1040" as="targetPoint" />
          </mxGeometry>
        </mxCell>
        <mxCell id="PSN9rO1ErE_UoYPw0t48-41" value="&lt;font style=&quot;font-size: 15px;&quot; face=&quot;Times New Roman&quot;&gt;&lt;b&gt;设备共享，等效一个block&lt;/b&gt;&lt;/font&gt;" style="text;html=1;align=center;verticalAlign=middle;resizable=0;points=[];autosize=1;strokeColor=#d79b00;fillColor=#ffe6cc;" vertex="1" parent="1">
          <mxGeometry x="271.5" y="1190" width="190" height="30" as="geometry" />
        </mxCell>
        <mxCell id="PSN9rO1ErE_UoYPw0t48-43" value="" style="shape=flexArrow;endArrow=classic;html=1;rounded=0;" edge="1" parent="1">
          <mxGeometry width="50" height="50" relative="1" as="geometry">
            <mxPoint x="560" y="1070" as="sourcePoint" />
            <mxPoint x="630" y="1070" as="targetPoint" />
            <Array as="points">
              <mxPoint x="630" y="1070" />
            </Array>
          </mxGeometry>
        </mxCell>
        <mxCell id="PSN9rO1ErE_UoYPw0t48-44" value="" style="shape=flexArrow;endArrow=classic;html=1;rounded=0;" edge="1" parent="1">
          <mxGeometry width="50" height="50" relative="1" as="geometry">
            <mxPoint x="561" y="1170" as="sourcePoint" />
            <mxPoint x="631" y="1170" as="targetPoint" />
            <Array as="points">
              <mxPoint x="631" y="1170" />
            </Array>
          </mxGeometry>
        </mxCell>
        <mxCell id="PSN9rO1ErE_UoYPw0t48-45" value="接驳定子block" style="rounded=0;whiteSpace=wrap;html=1;" vertex="1" parent="1">
          <mxGeometry x="700" y="1050" width="230" height="40" as="geometry" />
        </mxCell>
        <mxCell id="PSN9rO1ErE_UoYPw0t48-46" value="&lt;div&gt;。&lt;/div&gt;&lt;div&gt;。&lt;/div&gt;&lt;div&gt;&lt;br&gt;&lt;/div&gt;" style="rounded=0;whiteSpace=wrap;html=1;" vertex="1" parent="1">
          <mxGeometry x="700" y="1110" width="230" height="40" as="geometry" />
        </mxCell>
        <mxCell id="PSN9rO1ErE_UoYPw0t48-47" value="接驳定子block" style="rounded=0;whiteSpace=wrap;html=1;" vertex="1" parent="1">
          <mxGeometry x="700" y="1160" width="230" height="40" as="geometry" />
        </mxCell>
        <mxCell id="PSN9rO1ErE_UoYPw0t48-48" value="确定连接关系" style="text;html=1;align=center;verticalAlign=middle;resizable=0;points=[];autosize=1;" vertex="1" parent="1">
          <mxGeometry x="570" y="1105" width="100" height="30" as="geometry" />
        </mxCell>
        <mxCell id="PSN9rO1ErE_UoYPw0t48-53" value="" style="rounded=0;whiteSpace=wrap;html=1;opacity=60;fillColor=#dae8fc;strokeColor=#6c8ebf;" vertex="1" parent="1">
          <mxGeometry x="120" y="600" width="910" height="660" as="geometry" />
        </mxCell>
        <mxCell id="PSN9rO1ErE_UoYPw0t48-54" value="&lt;font style=&quot;font-size: 18px;&quot; face=&quot;Times New Roman&quot;&gt;&lt;b&gt;通过接驳点共享确定map&lt;/b&gt;&lt;/font&gt;" style="text;html=1;align=center;verticalAlign=middle;resizable=0;points=[];autosize=1;strokeColor=#d79b00;fillColor=#ffe6cc;" vertex="1" parent="1">
          <mxGeometry x="461.5" y="1280" width="220" height="40" as="geometry" />
        </mxCell>
        <mxCell id="PSN9rO1ErE_UoYPw0t48-55" value="" style="rounded=0;whiteSpace=wrap;html=1;fillColor=#d5e8d4;strokeColor=#82b366;opacity=60;" vertex="1" parent="1">
          <mxGeometry x="130" y="80" width="860" height="330" as="geometry" />
        </mxCell>
        <mxCell id="PSN9rO1ErE_UoYPw0t48-56" value="&lt;font style=&quot;font-size: 18px;&quot;&gt;生成blcok&lt;/font&gt;" style="text;html=1;align=center;verticalAlign=middle;resizable=0;points=[];autosize=1;strokeColor=#d6b656;fillColor=#fff2cc;" vertex="1" parent="1">
          <mxGeometry x="500" y="420" width="100" height="40" as="geometry" />
        </mxCell>
        <mxCell id="PSN9rO1ErE_UoYPw0t48-58" value="最优调度各设备" style="rounded=1;whiteSpace=wrap;html=1;fillColor=#fff2cc;strokeColor=#d6b656;" vertex="1" parent="1">
          <mxGeometry x="1330" y="645" width="270" height="105" as="geometry" />
        </mxCell>
        <mxCell id="PSN9rO1ErE_UoYPw0t48-59" value="上位机配置" style="rounded=1;whiteSpace=wrap;html=1;fillColor=#f8cecc;strokeColor=#b85450;fontStyle=1" vertex="1" parent="1">
          <mxGeometry x="1330" y="770" width="270" height="105" as="geometry" />
        </mxCell>
        <mxCell id="PSN9rO1ErE_UoYPw0t48-62" value="&lt;font style=&quot;font-size: 18px;&quot;&gt;设备共享运动&lt;/font&gt;" style="text;html=1;align=center;verticalAlign=middle;resizable=0;points=[];autosize=1;strokeColor=#d79b00;fillColor=#ffe6cc;" vertex="1" parent="1">
          <mxGeometry x="1390" y="1020" width="130" height="40" as="geometry" />
        </mxCell>
        <mxCell id="PSN9rO1ErE_UoYPw0t48-64" value="工艺包配置" style="rounded=1;whiteSpace=wrap;html=1;fillColor=#f8cecc;strokeColor=#b85450;fontStyle=1" vertex="1" parent="1">
          <mxGeometry x="1330" y="890" width="270" height="105" as="geometry" />
        </mxCell>
        <mxCell id="PSN9rO1ErE_UoYPw0t48-65" value="" style="rounded=0;whiteSpace=wrap;html=1;strokeColor=#d79b00;align=center;verticalAlign=middle;fontFamily=Helvetica;fontSize=12;fontColor=default;fontStyle=1;fillColor=#ffe6cc;opacity=60;" vertex="1" parent="1">
          <mxGeometry x="1265" y="640" width="390" height="365" as="geometry" />
        </mxCell>
      </root>
    </mxGraphModel>
  </diagram>
</mxfile>
